<?xml version="1.0" standalone="no"?>
<!DOCTYPE svg PUBLIC "-//W3C//DTD SVG 1.1//EN" "http://www.w3.org/Graphics/SVG/1.1/DTD/svg11.dtd">
<svg version="1.1" xmlns="http://www.w3.org/2000/svg" viewBox="0 0 414.65332909346216 271.26335924389036" width="414.65332909346216" height="271.26335924389036"><!-- svg-source:excalidraw --><metadata></metadata><defs><style class="style-fonts">
      </style></defs><g stroke-linecap="round" transform="translate(15.545308854368159 119.04339459940155) rotate(0 29.070519330231946 19.38034622015452)"><path d="M9.69 0 C22.25 0, 34.81 0, 48.45 0 C54.91 0, 58.14 3.23, 58.14 9.69 C58.14 15.47, 58.14 21.25, 58.14 29.07 C58.14 35.53, 54.91 38.76, 48.45 38.76 C35.25 38.76, 22.05 38.76, 9.69 38.76 C3.23 38.76, 0 35.53, 0 29.07 C0 24.07, 0 19.07, 0 9.69 C0 3.23, 3.23 0, 9.69 0" stroke="none" stroke-width="0" fill="#14e19d"></path><path d="M9.69 0 C20.2 0, 30.71 0, 48.45 0 M9.69 0 C18.62 0, 27.56 0, 48.45 0 M48.45 0 C54.91 0, 58.14 3.23, 58.14 9.69 M48.45 0 C54.91 0, 58.14 3.23, 58.14 9.69 M58.14 9.69 C58.14 14.12, 58.14 18.55, 58.14 29.07 M58.14 9.69 C58.14 16.51, 58.14 23.32, 58.14 29.07 M58.14 29.07 C58.14 35.53, 54.91 38.76, 48.45 38.76 M58.14 29.07 C58.14 35.53, 54.91 38.76, 48.45 38.76 M48.45 38.76 C39.48 38.76, 30.5 38.76, 9.69 38.76 M48.45 38.76 C37.49 38.76, 26.53 38.76, 9.69 38.76 M9.69 38.76 C3.23 38.76, 0 35.53, 0 29.07 M9.69 38.76 C3.23 38.76, 0 35.53, 0 29.07 M0 29.07 C0 24.35, 0 19.63, 0 9.69 M0 29.07 C0 23.25, 0 17.43, 0 9.69 M0 9.69 C0 3.23, 3.23 0, 9.69 0 M0 9.69 C0 3.23, 3.23 0, 9.69 0" stroke="#27323f" stroke-width="1" fill="none"></path></g><g stroke-linecap="round" transform="translate(10 162.11835991622564) rotate(0 34.15842490842488 4.675677934232979)"><path d="M2.34 0 C26.24 0, 50.14 0, 65.98 0 C67.54 0, 68.32 0.78, 68.32 2.34 C68.32 3.29, 68.32 4.25, 68.32 7.01 C68.32 8.57, 67.54 9.35, 65.98 9.35 C48.23 9.35, 30.49 9.35, 2.34 9.35 C0.78 9.35, 0 8.57, 0 7.01 C0 5.53, 0 4.05, 0 2.34 C0 0.78, 0.78 0, 2.34 0" stroke="none" stroke-width="0" fill="#14e19d"></path><path d="M2.34 0 C17.47 0, 32.6 0, 65.98 0 M2.34 0 C24.26 0, 46.17 0, 65.98 0 M65.98 0 C67.54 0, 68.32 0.78, 68.32 2.34 M65.98 0 C67.54 0, 68.32 0.78, 68.32 2.34 M68.32 2.34 C68.32 3.86, 68.32 5.39, 68.32 7.01 M68.32 2.34 C68.32 3.48, 68.32 4.63, 68.32 7.01 M68.32 7.01 C68.32 8.57, 67.54 9.35, 65.98 9.35 M68.32 7.01 C68.32 8.57, 67.54 9.35, 65.98 9.35 M65.98 9.35 C46.5 9.35, 27.02 9.35, 2.34 9.35 M65.98 9.35 C43.37 9.35, 20.77 9.35, 2.34 9.35 M2.34 9.35 C0.78 9.35, 0 8.57, 0 7.01 M2.34 9.35 C0.78 9.35, 0 8.57, 0 7.01 M0 7.01 C0 5.25, 0 3.48, 0 2.34 M0 7.01 C0 5.98, 0 4.94, 0 2.34 M0 2.34 C0 0.78, 0.78 0, 2.34 0 M0 2.34 C0 0.78, 0.78 0, 2.34 0" stroke="#27323f" stroke-width="1" fill="none"></path></g><g stroke-linecap="round" transform="translate(60.367807606092356 165.54280009341068) rotate(0 6.120820957724391 1.179895253357003)"><path d="M0.59 0 C3.46 0, 6.33 0, 11.65 0 C12.04 0, 12.24 0.2, 12.24 0.59 C12.24 0.88, 12.24 1.17, 12.24 1.77 C12.24 2.16, 12.04 2.36, 11.65 2.36 C7.55 2.36, 3.44 2.36, 0.59 2.36 C0.2 2.36, 0 2.16, 0 1.77 C0 1.52, 0 1.27, 0 0.59 C0 0.2, 0.2 0, 0.59 0" stroke="none" stroke-width="0" fill="#14e19d"></path><path d="M0.59 0 C2.95 0, 5.31 0, 11.65 0 M0.59 0 C4.05 0, 7.51 0, 11.65 0 M11.65 0 C12.04 0, 12.24 0.2, 12.24 0.59 M11.65 0 C12.04 0, 12.24 0.2, 12.24 0.59 M12.24 0.59 C12.24 0.87, 12.24 1.14, 12.24 1.77 M12.24 0.59 C12.24 0.95, 12.24 1.31, 12.24 1.77 M12.24 1.77 C12.24 2.16, 12.04 2.36, 11.65 2.36 M12.24 1.77 C12.24 2.16, 12.04 2.36, 11.65 2.36 M11.65 2.36 C7.74 2.36, 3.82 2.36, 0.59 2.36 M11.65 2.36 C8.72 2.36, 5.79 2.36, 0.59 2.36 M0.59 2.36 C0.2 2.36, 0 2.16, 0 1.77 M0.59 2.36 C0.2 2.36, 0 2.16, 0 1.77 M0 1.77 C0 1.51, 0 1.25, 0 0.59 M0 1.77 C0 1.3, 0 0.84, 0 0.59 M0 0.59 C0 0.2, 0.2 0, 0.59 0 M0 0.59 C0 0.2, 0.2 0, 0.59 0" stroke="#27323f" stroke-width="1" fill="none"></path></g><g stroke-linecap="round" transform="translate(38.679686483922524 158.40854972427502) rotate(0 6.120820957724391 1.179895253357003)"><path d="M0.59 0 C4.27 0, 7.95 0, 11.65 0 C12.04 0, 12.24 0.2, 12.24 0.59 C12.24 1.01, 12.24 1.42, 12.24 1.77 C12.24 2.16, 12.04 2.36, 11.65 2.36 C7.69 2.36, 3.73 2.36, 0.59 2.36 C0.2 2.36, 0 2.16, 0 1.77 C0 1.51, 0 1.26, 0 0.59 C0 0.2, 0.2 0, 0.59 0" stroke="none" stroke-width="0" fill="#14e19d"></path><path d="M0.59 0 C4.96 0, 9.32 0, 11.65 0 M0.59 0 C2.88 0, 5.17 0, 11.65 0 M11.65 0 C12.04 0, 12.24 0.2, 12.24 0.59 M11.65 0 C12.04 0, 12.24 0.2, 12.24 0.59 M12.24 0.59 C12.24 1.04, 12.24 1.49, 12.24 1.77 M12.24 0.59 C12.24 0.97, 12.24 1.36, 12.24 1.77 M12.24 1.77 C12.24 2.16, 12.04 2.36, 11.65 2.36 M12.24 1.77 C12.24 2.16, 12.04 2.36, 11.65 2.36 M11.65 2.36 C8.6 2.36, 5.54 2.36, 0.59 2.36 M11.65 2.36 C8.45 2.36, 5.25 2.36, 0.59 2.36 M0.59 2.36 C0.2 2.36, 0 2.16, 0 1.77 M0.59 2.36 C0.2 2.36, 0 2.16, 0 1.77 M0 1.77 C0 1.31, 0 0.86, 0 0.59 M0 1.77 C0 1.36, 0 0.95, 0 0.59 M0 0.59 C0 0.2, 0.2 0, 0.59 0 M0 0.59 C0 0.2, 0.2 0, 0.59 0" stroke="#27323f" stroke-width="1" fill="none"></path></g><g stroke-linecap="round" transform="translate(20.53847650305306 123.52762066985719) rotate(0 24.114462888662274 15.125362843360548)"><path d="M7.56 0 C19.28 0, 31 0, 40.67 0 C45.71 0, 48.23 2.52, 48.23 7.56 C48.23 11.34, 48.23 15.12, 48.23 22.69 C48.23 27.73, 45.71 30.25, 40.67 30.25 C30.88 30.25, 21.09 30.25, 7.56 30.25 C2.52 30.25, 0 27.73, 0 22.69 C0 18.25, 0 13.81, 0 7.56 C0 2.52, 2.52 0, 7.56 0" stroke="none" stroke-width="0" fill="#14e19d"></path><path d="M7.56 0 C18.46 0, 29.36 0, 40.67 0 M7.56 0 C14.62 0, 21.68 0, 40.67 0 M40.67 0 C45.71 0, 48.23 2.52, 48.23 7.56 M40.67 0 C45.71 0, 48.23 2.52, 48.23 7.56 M48.23 7.56 C48.23 11.61, 48.23 15.65, 48.23 22.69 M48.23 7.56 C48.23 12.14, 48.23 16.71, 48.23 22.69 M48.23 22.69 C48.23 27.73, 45.71 30.25, 40.67 30.25 M48.23 22.69 C48.23 27.73, 45.71 30.25, 40.67 30.25 M40.67 30.25 C29.02 30.25, 17.37 30.25, 7.56 30.25 M40.67 30.25 C27.48 30.25, 14.3 30.25, 7.56 30.25 M7.56 30.25 C2.52 30.25, 0 27.73, 0 22.69 M7.56 30.25 C2.52 30.25, 0 27.73, 0 22.69 M0 22.69 C0 17.09, 0 11.5, 0 7.56 M0 22.69 C0 16.96, 0 11.23, 0 7.56 M0 7.56 C0 2.52, 2.52 0, 7.56 0 M0 7.56 C0 2.52, 2.52 0, 7.56 0" stroke="#27323f" stroke-width="1" fill="none"></path></g><g stroke-linecap="round"><g transform="translate(176.84185150306985 144.27101594076518) rotate(0 38.14560832531697 4.440175080266513)" fill-rule="evenodd"><path d="M0 0 L0.11 9.42 L39.14 32.14 L75.79 8.38 L76.29 -0.73 L37.58 -23.26 L0 0" stroke="none" stroke-width="0" fill="#6e9bcf" fill-rule="evenodd"></path><path d="M0 0 C0.02 1.94, 0.05 3.88, 0.11 9.42 M0 0 C0.04 3.13, 0.08 6.27, 0.11 9.42 M0.11 9.42 C8.08 14.06, 16.04 18.7, 39.14 32.14 M0.11 9.42 C15.43 18.34, 30.74 27.25, 39.14 32.14 M39.14 32.14 C53.37 22.92, 67.6 13.69, 75.79 8.38 M39.14 32.14 C47.95 26.43, 56.77 20.71, 75.79 8.38 M75.79 8.38 C75.94 5.7, 76.08 3.03, 76.29 -0.73 M75.79 8.38 C75.92 6.04, 76.05 3.7, 76.29 -0.73 M76.29 -0.73 C63.34 -8.27, 50.39 -15.81, 37.58 -23.26 M76.29 -0.73 C61.85 -9.14, 47.4 -17.55, 37.58 -23.26 M37.58 -23.26 C28.47 -17.62, 19.36 -11.98, 0 0 M37.58 -23.26 C28.72 -17.78, 19.86 -12.3, 0 0 M0 0 C0 0, 0 0, 0 0 M0 0 C0 0, 0 0, 0 0" stroke="#27323f" stroke-width="1" fill="none"></path></g></g><mask></mask><g stroke-linecap="round"><g transform="translate(177.23280061258447 144.57114224320625) rotate(0 37.723228728400045 10.824967325600596)"><path d="M0 0 C14.53 8.62, 29.05 17.24, 38.44 22.81 M0 0 C13.61 8.08, 27.22 16.15, 38.44 22.81 M38.44 22.81 C47.53 16.92, 56.62 11.04, 75.45 -1.16 M38.44 22.81 C51.05 14.64, 63.65 6.48, 75.45 -1.16" stroke="#27323f" stroke-width="1" fill="none"></path></g></g><mask></mask><g stroke-linecap="round"><g transform="translate(215.8079947434071 176.0783264599065) rotate(0 -0.08865561764923768 -4.015930478814951)"><path d="M0 0 C-0.04 -1.84, -0.08 -3.68, -0.18 -8.03 M0 0 C-0.04 -1.78, -0.08 -3.57, -0.18 -8.03" stroke="#27323f" stroke-width="1" fill="none"></path></g></g><mask></mask><g stroke-linecap="round"><g transform="translate(218.41887523665537 140.65449705361866) rotate(0 -4.027958273394233 -5.922418624828126)" fill-rule="evenodd"><path d="M0 0 L-7.79 -6.11 L-11.31 -2.96 L-11.39 -11.84 L-1.6 -11.13 L-4.89 -8.59 L3.33 -3.06 L0 0" stroke="none" stroke-width="0" fill="#6e9bcf" fill-rule="evenodd"></path><path d="M0 0 C-1.96 -1.54, -3.92 -3.07, -7.79 -6.11 M0 0 C-2.43 -1.91, -4.87 -3.82, -7.79 -6.11 M-7.79 -6.11 C-8.67 -5.33, -9.55 -4.54, -11.31 -2.96 M-7.79 -6.11 C-9.1 -4.94, -10.4 -3.77, -11.31 -2.96 M-11.31 -2.96 C-11.33 -5.25, -11.35 -7.55, -11.39 -11.84 M-11.31 -2.96 C-11.33 -5.75, -11.36 -8.54, -11.39 -11.84 M-11.39 -11.84 C-9.24 -11.69, -7.09 -11.53, -1.6 -11.13 M-11.39 -11.84 C-8.76 -11.65, -6.14 -11.46, -1.6 -11.13 M-1.6 -11.13 C-2.73 -10.25, -3.87 -9.38, -4.89 -8.59 M-1.6 -11.13 C-2.67 -10.31, -3.74 -9.48, -4.89 -8.59 M-4.89 -8.59 C-2.01 -6.65, 0.87 -4.71, 3.33 -3.06 M-4.89 -8.59 C-2.4 -6.92, 0.09 -5.24, 3.33 -3.06 M3.33 -3.06 C2.36 -2.16, 1.38 -1.27, 0 0 M3.33 -3.06 C2.3 -2.11, 1.26 -1.16, 0 0 M0 0 C0 0, 0 0, 0 0 M0 0 C0 0, 0 0, 0 0" stroke="#27323f" stroke-width="1" fill="none"></path></g></g><mask></mask><g stroke-linecap="round"><g transform="translate(203.08455144307845 150.76495320159162) rotate(0 -4.027958273394233 -5.922418624828126)" fill-rule="evenodd"><path d="M0 0 L-7.79 -6.11 L-11.31 -2.96 L-11.39 -11.84 L-1.6 -11.13 L-4.89 -8.59 L3.33 -3.06 L0 0" stroke="none" stroke-width="0" fill="#6e9bcf" fill-rule="evenodd"></path><path d="M0 0 C-2.76 -2.17, -5.52 -4.33, -7.79 -6.11 M0 0 C-1.67 -1.31, -3.34 -2.62, -7.79 -6.11 M-7.79 -6.11 C-8.89 -5.13, -9.99 -4.15, -11.31 -2.96 M-7.79 -6.11 C-9.05 -4.98, -10.31 -3.86, -11.31 -2.96 M-11.31 -2.96 C-11.33 -5.78, -11.36 -8.59, -11.39 -11.84 M-11.31 -2.96 C-11.33 -5.19, -11.35 -7.43, -11.39 -11.84 M-11.39 -11.84 C-8.22 -11.61, -5.06 -11.38, -1.6 -11.13 M-11.39 -11.84 C-8.18 -11.61, -4.97 -11.38, -1.6 -11.13 M-1.6 -11.13 C-2.31 -10.58, -3.02 -10.03, -4.89 -8.59 M-1.6 -11.13 C-2.67 -10.31, -3.74 -9.48, -4.89 -8.59 M-4.89 -8.59 C-2.86 -7.22, -0.82 -5.86, 3.33 -3.06 M-4.89 -8.59 C-2.89 -7.25, -0.9 -5.91, 3.33 -3.06 M3.33 -3.06 C2.42 -2.22, 1.51 -1.39, 0 0 M3.33 -3.06 C2.3 -2.11, 1.27 -1.17, 0 0 M0 0 C0 0, 0 0, 0 0 M0 0 C0 0, 0 0, 0 0" stroke="#27323f" stroke-width="1" fill="none"></path></g></g><mask></mask><g stroke-linecap="round"><g transform="translate(222.2510189654331 157.49603405765683) rotate(180 -4.027958273394233 -5.922418624828126)" fill-rule="evenodd"><path d="M0 0 L-7.79 -6.11 L-11.31 -2.96 L-11.39 -11.84 L-1.6 -11.13 L-4.89 -8.59 L3.33 -3.06 L0 0" stroke="none" stroke-width="0" fill="#6e9bcf" fill-rule="evenodd"></path><path d="M0 0 C-2.54 -2, -5.09 -3.99, -7.79 -6.11 M0 0 C-2.1 -1.65, -4.2 -3.29, -7.79 -6.11 M-7.79 -6.11 C-8.62 -5.38, -9.44 -4.64, -11.31 -2.96 M-7.79 -6.11 C-8.83 -5.18, -9.87 -4.25, -11.31 -2.96 M-11.31 -2.96 C-11.33 -4.83, -11.34 -6.7, -11.39 -11.84 M-11.31 -2.96 C-11.33 -5.46, -11.35 -7.96, -11.39 -11.84 M-11.39 -11.84 C-8.84 -11.66, -6.29 -11.47, -1.6 -11.13 M-11.39 -11.84 C-8.14 -11.61, -4.89 -11.37, -1.6 -11.13 M-1.6 -11.13 C-2.85 -10.17, -4.1 -9.2, -4.89 -8.59 M-1.6 -11.13 C-2.88 -10.14, -4.16 -9.15, -4.89 -8.59 M-4.89 -8.59 C-1.65 -6.41, 1.59 -4.23, 3.33 -3.06 M-4.89 -8.59 C-3.23 -7.48, -1.57 -6.36, 3.33 -3.06 M3.33 -3.06 C2.01 -1.85, 0.69 -0.64, 0 0 M3.33 -3.06 C2.4 -2.21, 1.48 -1.36, 0 0 M0 0 C0 0, 0 0, 0 0 M0 0 C0 0, 0 0, 0 0" stroke="#27323f" stroke-width="1" fill="none"></path></g></g><mask></mask><g stroke-linecap="round"><g transform="translate(236.6258696072 148.3691447612973) rotate(180 -4.027958273394233 -5.922418624828126)" fill-rule="evenodd"><path d="M0 0 L-7.79 -6.11 L-11.31 -2.96 L-11.39 -11.84 L-1.6 -11.13 L-4.89 -8.59 L3.33 -3.06 L0 0" stroke="none" stroke-width="0" fill="#6e9bcf" fill-rule="evenodd"></path><path d="M0 0 C-2.32 -1.82, -4.65 -3.65, -7.79 -6.11 M0 0 C-2.41 -1.89, -4.82 -3.78, -7.79 -6.11 M-7.79 -6.11 C-8.8 -5.21, -9.82 -4.3, -11.31 -2.96 M-7.79 -6.11 C-8.82 -5.2, -9.84 -4.28, -11.31 -2.96 M-11.31 -2.96 C-11.33 -4.89, -11.34 -6.81, -11.39 -11.84 M-11.31 -2.96 C-11.34 -5.86, -11.36 -8.75, -11.39 -11.84 M-11.39 -11.84 C-7.7 -11.58, -4.01 -11.31, -1.6 -11.13 M-11.39 -11.84 C-7.95 -11.59, -4.51 -11.34, -1.6 -11.13 M-1.6 -11.13 C-2.62 -10.34, -3.65 -9.55, -4.89 -8.59 M-1.6 -11.13 C-2.52 -10.42, -3.45 -9.71, -4.89 -8.59 M-4.89 -8.59 C-2.76 -7.16, -0.62 -5.72, 3.33 -3.06 M-4.89 -8.59 C-1.86 -6.56, 1.17 -4.52, 3.33 -3.06 M3.33 -3.06 C2.05 -1.88, 0.76 -0.7, 0 0 M3.33 -3.06 C2.1 -1.93, 0.88 -0.8, 0 0 M0 0 C0 0, 0 0, 0 0 M0 0 C0 0, 0 0, 0 0" stroke="#27323f" stroke-width="1" fill="none"></path></g></g><mask></mask><g stroke-linecap="round"><g transform="translate(340.5654740563032 64.580610281079) rotate(0 32.043927518579494 6.746090003911409)" fill-rule="evenodd"><path d="M0 0 L0.19 13.3 L32.61 32.98 L62.96 14.99 L64.09 0 L31.48 -19.49 L0 0" stroke="none" stroke-width="0" fill="#14e19d" fill-rule="evenodd"></path><path d="M0 0 C0.07 5.02, 0.14 10.03, 0.19 13.3 M0 0 C0.07 5.2, 0.15 10.4, 0.19 13.3 M0.19 13.3 C12.15 20.57, 24.12 27.83, 32.61 32.98 M0.19 13.3 C13.08 21.13, 25.97 28.95, 32.61 32.98 M32.61 32.98 C39.84 28.69, 47.07 24.41, 62.96 14.99 M32.61 32.98 C40.64 28.22, 48.68 23.46, 62.96 14.99 M62.96 14.99 C63.25 11.12, 63.54 7.25, 64.09 0 M62.96 14.99 C63.2 11.8, 63.44 8.6, 64.09 0 M64.09 0 C55.78 -4.96, 47.48 -9.93, 31.48 -19.49 M64.09 0 C51.69 -7.41, 39.3 -14.81, 31.48 -19.49 M31.48 -19.49 C19.91 -12.33, 8.34 -5.16, 0 0 M31.48 -19.49 C23.37 -14.47, 15.26 -9.45, 0 0 M0 0 C0 0, 0 0, 0 0 M0 0 C0 0, 0 0, 0 0" stroke="#495057" stroke-width="2" fill="none"></path></g></g><mask></mask><g stroke-linecap="round"><g transform="translate(372.9841843528802 96.24975502166504) rotate(0 0 -6.37130722591634)"><path d="M0 0 C0 -3.65, 0 -7.29, 0 -12.74 M0 0 C0 -3.33, 0 -6.66, 0 -12.74" stroke="#495057" stroke-width="2" fill="none"></path></g></g><mask></mask><g stroke-linecap="round"><g transform="translate(340.94025683429845 64.95539305907405) rotate(0 31.388057657087757 9.182178060879409)"><path d="M0 0 C8.89 5.1, 17.79 10.19, 32.04 18.36 M0 0 C7.69 4.41, 15.39 8.82, 32.04 18.36 M32.04 18.36 C41.97 12.73, 51.9 7.1, 62.78 0.94 M32.04 18.36 C38.79 14.54, 45.53 10.72, 62.78 0.94" stroke="#495057" stroke-width="2" fill="none"></path></g></g><mask></mask><g stroke-linecap="round"><g transform="translate(375.79505518784117 89.69105640675073) rotate(0 7.530851409209845 -4.216306252444625)"><path d="M0 0 C5.77 -3.23, 11.53 -6.46, 15.06 -8.43 M0 0 C4.43 -2.48, 8.86 -4.96, 15.06 -8.43" stroke="#495057" stroke-width="2" fill="none"></path></g></g><mask></mask><g stroke-linecap="round"><g transform="translate(393.72044190072756 78.05563814797338) rotate(0 3.916966760928972 -0.5402712773695342)" fill-rule="evenodd"><path d="M0 0 L0.09 3.42 L7.24 -1.23 L7.83 -4.5 L0 0" stroke="none" stroke-width="0" fill="#14e19d" fill-rule="evenodd"></path><path d="M0 0 C0.02 0.85, 0.04 1.7, 0.09 3.42 M0 0 C0.02 0.83, 0.04 1.67, 0.09 3.42 M0.09 3.42 C1.61 2.43, 3.14 1.44, 7.24 -1.23 M0.09 3.42 C2.73 1.7, 5.38 -0.02, 7.24 -1.23 M7.24 -1.23 C7.39 -2.02, 7.53 -2.8, 7.83 -4.5 M7.24 -1.23 C7.37 -1.92, 7.49 -2.62, 7.83 -4.5 M7.83 -4.5 C5.8 -3.34, 3.78 -2.17, 0 0 M7.83 -4.5 C5.78 -3.32, 3.73 -2.15, 0 0 M0 0 C0 0, 0 0, 0 0 M0 0 C0 0, 0 0, 0 0" stroke="#495057" stroke-width="1" fill="none"></path></g></g><mask></mask><g stroke-linecap="round"><g transform="translate(340.4239744360448 46.91410400872807) rotate(0 32.043927518579494 6.7460900039113945)" fill-rule="evenodd"><path d="M0 0 L0.19 13.3 L32.61 32.98 L62.96 14.99 L64.09 0 L31.48 -19.49 L0 0" stroke="none" stroke-width="0" fill="#14e19d" fill-rule="evenodd"></path><path d="M0 0 C0.05 3.61, 0.1 7.23, 0.19 13.3 M0 0 C0.04 3, 0.08 6.01, 0.19 13.3 M0.19 13.3 C10.72 19.7, 21.25 26.09, 32.61 32.98 M0.19 13.3 C12 20.48, 23.82 27.65, 32.61 32.98 M32.61 32.98 C38.91 29.24, 45.22 25.51, 62.96 14.99 M32.61 32.98 C39.73 28.76, 46.85 24.54, 62.96 14.99 M62.96 14.99 C63.32 10.21, 63.68 5.43, 64.09 0 M62.96 14.99 C63.23 11.41, 63.5 7.84, 64.09 0 M64.09 0 C54.45 -5.76, 44.81 -11.52, 31.48 -19.49 M64.09 0 C57.3 -4.06, 50.51 -8.11, 31.48 -19.49 M31.48 -19.49 C19.59 -12.13, 7.7 -4.77, 0 0 M31.48 -19.49 C23.88 -14.78, 16.27 -10.07, 0 0 M0 0 C0 0, 0 0, 0 0 M0 0 C0 0, 0 0, 0 0" stroke="#495057" stroke-width="2" fill="none"></path></g></g><mask></mask><g stroke-linecap="round"><g transform="translate(372.8426847326109 78.58324874931091) rotate(0 0 -6.37130722591634)"><path d="M0 0 C0 -4.34, 0 -8.68, 0 -12.74 M0 0 C0 -4.56, 0 -9.12, 0 -12.74" stroke="#495057" stroke-width="2" fill="none"></path></g></g><mask></mask><g stroke-linecap="round"><g transform="translate(340.7987572140346 47.288886786722664) rotate(0 31.388057657087757 9.182178060879409)"><path d="M0 0 C11.83 6.78, 23.65 13.56, 32.04 18.36 M0 0 C12.74 7.3, 25.48 14.6, 32.04 18.36 M32.04 18.36 C39.37 14.21, 46.69 10.06, 62.78 0.94 M32.04 18.36 C40.18 13.75, 48.32 9.14, 62.78 0.94" stroke="#495057" stroke-width="2" fill="none"></path></g></g><mask></mask><g stroke-linecap="round"><g transform="translate(375.6535555675773 72.02455013439854) rotate(0 7.870438337896758 -4.2163062524446175)"><path d="M0 0 C3.72 -1.99, 7.44 -3.99, 15.74 -8.43 M0 0 C3.28 -1.76, 6.56 -3.51, 15.74 -8.43" stroke="#495057" stroke-width="2" fill="none"></path></g></g><mask></mask><g stroke-linecap="round"><g transform="translate(394.0883226734941 59.87975148259162) rotate(0 3.3141999625099743 -0.3594412378437326)" fill-rule="evenodd"><path d="M0 0 L0.09 3.42 L6.48 -0.36 L6.63 -4.14 L0 0" stroke="none" stroke-width="0" fill="#14e19d" fill-rule="evenodd"></path><path d="M0 0 C0.03 1.11, 0.06 2.21, 0.09 3.42 M0 0 C0.02 0.75, 0.04 1.5, 0.09 3.42 M0.09 3.42 C2.63 1.92, 5.16 0.42, 6.48 -0.36 M0.09 3.42 C1.95 2.32, 3.81 1.22, 6.48 -0.36 M6.48 -0.36 C6.53 -1.78, 6.59 -3.2, 6.63 -4.14 M6.48 -0.36 C6.51 -1.25, 6.55 -2.14, 6.63 -4.14 M6.63 -4.14 C4.23 -2.64, 1.82 -1.14, 0 0 M6.63 -4.14 C4.8 -3, 2.97 -1.86, 0 0 M0 0 C0 0, 0 0, 0 0 M0 0 C0 0, 0 0, 0 0" stroke="#495057" stroke-width="1" fill="none"></path></g></g><mask></mask><g stroke-linecap="round"><g transform="translate(340.28247481577546 29.488704455744177) rotate(0 32.043927518579494 6.7460900039113945)" fill-rule="evenodd"><path d="M0 0 L0.19 13.3 L32.61 32.98 L62.96 14.99 L64.09 0 L31.48 -19.49 L0 0" stroke="none" stroke-width="0" fill="#14e19d" fill-rule="evenodd"></path><path d="M0 0 C0.05 3.32, 0.09 6.64, 0.19 13.3 M0 0 C0.05 3.85, 0.11 7.71, 0.19 13.3 M0.19 13.3 C11.79 20.34, 23.39 27.38, 32.61 32.98 M0.19 13.3 C6.97 17.42, 13.75 21.53, 32.61 32.98 M32.61 32.98 C42.58 27.07, 52.56 21.16, 62.96 14.99 M32.61 32.98 C40.79 28.13, 48.98 23.28, 62.96 14.99 M62.96 14.99 C63.35 9.78, 63.74 4.58, 64.09 0 M62.96 14.99 C63.41 9.1, 63.85 3.21, 64.09 0 M64.09 0 C53.45 -6.36, 42.82 -12.71, 31.48 -19.49 M64.09 0 C56.19 -4.72, 48.29 -9.44, 31.48 -19.49 M31.48 -19.49 C23.08 -14.29, 14.68 -9.08, 0 0 M31.48 -19.49 C23.29 -14.42, 15.11 -9.35, 0 0 M0 0 C0 0, 0 0, 0 0 M0 0 C0 0, 0 0, 0 0" stroke="#495057" stroke-width="2" fill="none"></path></g></g><mask></mask><g stroke-linecap="round"><g transform="translate(372.7011851123543 61.15784919632612) rotate(0 0 -6.371307225916343)"><path d="M0 0 C0 -2.71, 0 -5.42, 0 -12.74 M0 0 C0 -4.71, 0 -9.42, 0 -12.74" stroke="#495057" stroke-width="2" fill="none"></path></g></g><mask></mask><g stroke-linecap="round"><g transform="translate(340.657257593778 29.86348723373809) rotate(0 31.388057657087757 9.182178060879409)"><path d="M0 0 C10.41 5.96, 20.82 11.93, 32.04 18.36 M0 0 C11.68 6.69, 23.36 13.39, 32.04 18.36 M32.04 18.36 C38.43 14.74, 44.81 11.12, 62.78 0.94 M32.04 18.36 C39.26 14.27, 46.47 10.19, 62.78 0.94" stroke="#495057" stroke-width="2" fill="none"></path></g></g><mask></mask><g stroke-linecap="round"><g transform="translate(375.5120559473171 54.599150581412495) rotate(0 7.870438337896758 -4.2163062524446175)"><path d="M0 0 C5.49 -2.94, 10.98 -5.88, 15.74 -8.43 M0 0 C6.23 -3.34, 12.46 -6.68, 15.74 -8.43" stroke="#495057" stroke-width="2" fill="none"></path></g></g><mask></mask><g stroke-linecap="round"><g transform="translate(393.9468230532284 42.454351929607164) rotate(0 3.615583361719473 -0.2991645580018947)" fill-rule="evenodd"><path d="M0 0 L0.09 3.42 L6.84 -0.24 L7.23 -4.02 L0 0" stroke="none" stroke-width="0" fill="#14e19d" fill-rule="evenodd"></path><path d="M0 0 C0.02 0.82, 0.04 1.63, 0.09 3.42 M0 0 C0.02 0.91, 0.05 1.81, 0.09 3.42 M0.09 3.42 C1.83 2.48, 3.58 1.53, 6.84 -0.24 M0.09 3.42 C1.53 2.64, 2.97 1.86, 6.84 -0.24 M6.84 -0.24 C6.94 -1.2, 7.04 -2.16, 7.23 -4.02 M6.84 -0.24 C6.99 -1.68, 7.14 -3.11, 7.23 -4.02 M7.23 -4.02 C4.57 -2.54, 1.92 -1.07, 0 0 M7.23 -4.02 C5.37 -2.98, 3.5 -1.95, 0 0 M0 0 C0 0, 0 0, 0 0 M0 0 C0 0, 0 0, 0 0" stroke="#495057" stroke-width="1" fill="none"></path></g></g><mask></mask><g stroke-linecap="round"><g transform="translate(340.2386832310185 228.28247478032338) rotate(0 32.043927518579494 6.746090003911405)" fill-rule="evenodd"><path d="M0 0 L0.19 13.3 L32.61 32.98 L62.96 14.99 L64.09 0 L31.48 -19.49 L0 0" stroke="none" stroke-width="0" fill="#14e19d" fill-rule="evenodd"></path><path d="M0 0 C0.05 3.52, 0.1 7.03, 0.19 13.3 M0 0 C0.05 3.74, 0.11 7.49, 0.19 13.3 M0.19 13.3 C12 20.47, 23.81 27.64, 32.61 32.98 M0.19 13.3 C9.79 19.14, 19.4 24.97, 32.61 32.98 M32.61 32.98 C42.8 26.94, 53 20.9, 62.96 14.99 M32.61 32.98 C44.58 25.88, 56.56 18.79, 62.96 14.99 M62.96 14.99 C63.32 10.21, 63.68 5.43, 64.09 0 M62.96 14.99 C63.38 9.45, 63.79 3.91, 64.09 0 M64.09 0 C51.18 -7.72, 38.27 -15.43, 31.48 -19.49 M64.09 0 C54.17 -5.93, 44.26 -11.85, 31.48 -19.49 M31.48 -19.49 C24.31 -15.05, 17.13 -10.61, 0 0 M31.48 -19.49 C20.99 -12.99, 10.49 -6.49, 0 0 M0 0 C0 0, 0 0, 0 0 M0 0 C0 0, 0 0, 0 0" stroke="#495057" stroke-width="2" fill="none"></path></g></g><mask></mask><g stroke-linecap="round"><g transform="translate(372.65739352759556 259.9516195209094) rotate(0 0 -6.371307225916354)"><path d="M0 0 C0 -3.21, 0 -6.42, 0 -12.74 M0 0 C0 -3.26, 0 -6.52, 0 -12.74" stroke="#495057" stroke-width="2" fill="none"></path></g></g><mask></mask><g stroke-linecap="round"><g transform="translate(340.6134660090138 228.65725755831843) rotate(0 31.388057657087757 9.182178060879423)"><path d="M0 0 C12.63 7.24, 25.27 14.48, 32.04 18.36 M0 0 C9.32 5.34, 18.64 10.68, 32.04 18.36 M32.04 18.36 C39.15 14.33, 46.27 10.3, 62.78 0.94 M32.04 18.36 C43.67 11.77, 55.31 5.17, 62.78 0.94" stroke="#495057" stroke-width="2" fill="none"></path></g></g><mask></mask><g stroke-linecap="round"><g transform="translate(375.4682643625565 253.39292090599508) rotate(0 7.530851409209845 -4.216306252444639)"><path d="M0 0 C5.18 -2.9, 10.36 -5.8, 15.06 -8.43 M0 0 C5.01 -2.81, 10.03 -5.61, 15.06 -8.43" stroke="#495057" stroke-width="2" fill="none"></path></g></g><mask></mask><g stroke-linecap="round"><g transform="translate(393.3936510754429 241.75750264721773) rotate(0 3.916966760928972 -0.5402712773695555)" fill-rule="evenodd"><path d="M0 0 L0.09 3.42 L7.24 -1.23 L7.83 -4.5 L0 0" stroke="none" stroke-width="0" fill="#14e19d" fill-rule="evenodd"></path><path d="M0 0 C0.02 0.8, 0.04 1.6, 0.09 3.42 M0 0 C0.03 0.96, 0.05 1.91, 0.09 3.42 M0.09 3.42 C1.59 2.45, 3.09 1.47, 7.24 -1.23 M0.09 3.42 C2.31 1.98, 4.53 0.54, 7.24 -1.23 M7.24 -1.23 C7.4 -2.08, 7.55 -2.93, 7.83 -4.5 M7.24 -1.23 C7.46 -2.43, 7.68 -3.63, 7.83 -4.5 M7.83 -4.5 C5.52 -3.17, 3.2 -1.84, 0 0 M7.83 -4.5 C5.1 -2.93, 2.36 -1.36, 0 0 M0 0 C0 0, 0 0, 0 0 M0 0 C0 0, 0 0, 0 0" stroke="#495057" stroke-width="1" fill="none"></path></g></g><mask></mask><g stroke-linecap="round"><g transform="translate(340.0971836107601 210.61596850797244) rotate(0 32.043927518579494 6.746090003911405)" fill-rule="evenodd"><path d="M0 0 L0.19 13.3 L32.61 32.98 L62.96 14.99 L64.09 0 L31.48 -19.49 L0 0" stroke="none" stroke-width="0" fill="#14e19d" fill-rule="evenodd"></path><path d="M0 0 C0.06 4.48, 0.13 8.95, 0.19 13.3 M0 0 C0.06 4.24, 0.12 8.49, 0.19 13.3 M0.19 13.3 C10.55 19.6, 20.92 25.89, 32.61 32.98 M0.19 13.3 C7.74 17.89, 15.28 22.47, 32.61 32.98 M32.61 32.98 C41.46 27.73, 50.31 22.49, 62.96 14.99 M32.61 32.98 C42.43 27.16, 52.25 21.34, 62.96 14.99 M62.96 14.99 C63.24 11.26, 63.52 7.53, 64.09 0 M62.96 14.99 C63.33 10.17, 63.69 5.35, 64.09 0 M64.09 0 C56.17 -4.73, 48.25 -9.46, 31.48 -19.49 M64.09 0 C53.17 -6.53, 42.24 -13.06, 31.48 -19.49 M31.48 -19.49 C24.67 -15.27, 17.86 -11.06, 0 0 M31.48 -19.49 C24.86 -15.39, 18.24 -11.29, 0 0 M0 0 C0 0, 0 0, 0 0 M0 0 C0 0, 0 0, 0 0" stroke="#495057" stroke-width="2" fill="none"></path></g></g><mask></mask><g stroke-linecap="round"><g transform="translate(372.51589390732624 242.28511324855526) rotate(0 0 -6.37130722591634)"><path d="M0 0 C0 -4.23, 0 -8.45, 0 -12.74 M0 0 C0 -3.38, 0 -6.75, 0 -12.74" stroke="#495057" stroke-width="2" fill="none"></path></g></g><mask></mask><g stroke-linecap="round"><g transform="translate(340.47196638874993 210.99075128596704) rotate(0 31.388057657087757 9.182178060879409)"><path d="M0 0 C11.68 6.69, 23.35 13.38, 32.04 18.36 M0 0 C9.5 5.44, 18.99 10.88, 32.04 18.36 M32.04 18.36 C42.37 12.51, 52.69 6.66, 62.78 0.94 M32.04 18.36 C44.17 11.49, 56.29 4.61, 62.78 0.94" stroke="#495057" stroke-width="2" fill="none"></path></g></g><mask></mask><g stroke-linecap="round"><g transform="translate(375.32676474229265 235.72641463364292) rotate(0 7.870438337896758 -4.216306252444625)"><path d="M0 0 C4.86 -2.6, 9.72 -5.21, 15.74 -8.43 M0 0 C4.63 -2.48, 9.26 -4.96, 15.74 -8.43" stroke="#495057" stroke-width="2" fill="none"></path></g></g><mask></mask><g stroke-linecap="round"><g transform="translate(393.7615318482094 223.581615981836) rotate(0 3.3141999625099743 -0.3594412378437255)" fill-rule="evenodd"><path d="M0 0 L0.09 3.42 L6.48 -0.36 L6.63 -4.14 L0 0" stroke="none" stroke-width="0" fill="#14e19d" fill-rule="evenodd"></path><path d="M0 0 C0.02 0.79, 0.04 1.58, 0.09 3.42 M0 0 C0.03 1.29, 0.07 2.59, 0.09 3.42 M0.09 3.42 C2.61 1.93, 5.14 0.43, 6.48 -0.36 M0.09 3.42 C2.04 2.27, 3.98 1.12, 6.48 -0.36 M6.48 -0.36 C6.53 -1.63, 6.58 -2.9, 6.63 -4.14 M6.48 -0.36 C6.54 -1.83, 6.6 -3.31, 6.63 -4.14 M6.63 -4.14 C4.17 -2.61, 1.71 -1.07, 0 0 M6.63 -4.14 C4.5 -2.81, 2.38 -1.49, 0 0 M0 0 C0 0, 0 0, 0 0 M0 0 C0 0, 0 0, 0 0" stroke="#495057" stroke-width="1" fill="none"></path></g></g><mask></mask><g stroke-linecap="round"><g transform="translate(339.9556839904908 193.19056895498855) rotate(0 32.043927518579494 6.746090003911405)" fill-rule="evenodd"><path d="M0 0 L0.19 13.3 L32.61 32.98 L62.96 14.99 L64.09 0 L31.48 -19.49 L0 0" stroke="none" stroke-width="0" fill="#14e19d" fill-rule="evenodd"></path><path d="M0 0 C0.05 3.36, 0.09 6.72, 0.19 13.3 M0 0 C0.05 3.28, 0.09 6.56, 0.19 13.3 M0.19 13.3 C12.14 20.56, 24.1 27.82, 32.61 32.98 M0.19 13.3 C10.56 19.6, 20.94 25.9, 32.61 32.98 M32.61 32.98 C43.36 26.61, 54.11 20.24, 62.96 14.99 M32.61 32.98 C44.19 26.12, 55.78 19.25, 62.96 14.99 M62.96 14.99 C63.41 8.99, 63.86 3, 64.09 0 M62.96 14.99 C63.37 9.57, 63.78 4.15, 64.09 0 M64.09 0 C55.48 -5.14, 46.88 -10.29, 31.48 -19.49 M64.09 0 C55.79 -4.96, 47.5 -9.92, 31.48 -19.49 M31.48 -19.49 C21.78 -13.48, 12.08 -7.48, 0 0 M31.48 -19.49 C22.6 -13.99, 13.73 -8.5, 0 0 M0 0 C0 0, 0 0, 0 0 M0 0 C0 0, 0 0, 0 0" stroke="#495057" stroke-width="2" fill="none"></path></g></g><mask></mask><g stroke-linecap="round"><g transform="translate(372.37439428706966 224.8597136955705) rotate(0 0 -6.37130722591634)"><path d="M0 0 C0 -2.67, 0 -5.35, 0 -12.74 M0 0 C0 -3.95, 0 -7.91, 0 -12.74" stroke="#495057" stroke-width="2" fill="none"></path></g></g><mask></mask><g stroke-linecap="round"><g transform="translate(340.33046676849335 193.56535173298246) rotate(0 31.388057657087757 9.182178060879409)"><path d="M0 0 C10.25 5.87, 20.49 11.75, 32.04 18.36 M0 0 C7.46 4.28, 14.92 8.55, 32.04 18.36 M32.04 18.36 C41.01 13.28, 49.97 8.2, 62.78 0.94 M32.04 18.36 C41.99 12.73, 51.93 7.09, 62.78 0.94" stroke="#495057" stroke-width="2" fill="none"></path></g></g><mask></mask><g stroke-linecap="round"><g transform="translate(375.18526512203243 218.30101508065687) rotate(0 7.870438337896758 -4.216306252444625)"><path d="M0 0 C3.79 -2.03, 7.58 -4.06, 15.74 -8.43 M0 0 C4.21 -2.26, 8.42 -4.51, 15.74 -8.43" stroke="#495057" stroke-width="2" fill="none"></path></g></g><mask></mask><g stroke-linecap="round"><g transform="translate(393.62003222794374 206.15621642885154) rotate(0 3.615583361719473 -0.2991645580018911)" fill-rule="evenodd"><path d="M0 0 L0.09 3.42 L6.84 -0.24 L7.23 -4.02 L0 0" stroke="none" stroke-width="0" fill="#14e19d" fill-rule="evenodd"></path><path d="M0 0 C0.03 1.15, 0.06 2.3, 0.09 3.42 M0 0 C0.04 1.35, 0.07 2.7, 0.09 3.42 M0.09 3.42 C2.24 2.25, 4.4 1.09, 6.84 -0.24 M0.09 3.42 C2.58 2.07, 5.08 0.72, 6.84 -0.24 M6.84 -0.24 C6.99 -1.74, 7.15 -3.23, 7.23 -4.02 M6.84 -0.24 C6.96 -1.39, 7.08 -2.54, 7.23 -4.02 M7.23 -4.02 C5.58 -3.1, 3.93 -2.19, 0 0 M7.23 -4.02 C4.82 -2.68, 2.41 -1.34, 0 0 M0 0 C0 0, 0 0, 0 0 M0 0 C0 0, 0 0, 0 0" stroke="#495057" stroke-width="1" fill="none"></path></g></g><mask></mask><g stroke-linecap="round"><g transform="translate(74.4001036921427 146.98192865033838) rotate(0 51.22638116987673 1.3987959058407569)"><path d="M0 0 C39.91 1.09, 79.82 2.18, 102.45 2.8 M0 0 C36.04 0.98, 72.08 1.97, 102.45 2.8" stroke="#afd4fe" stroke-width="1" fill="none"></path></g></g><mask></mask><g stroke-linecap="round"><g transform="translate(235.32573763070195 132.14945959585808) rotate(0 57.44632334609014 -23.51245994194541)"><path d="M0 0 C32.44 -13.28, 64.87 -26.55, 114.89 -47.02 M0 0 C25.13 -10.28, 50.25 -20.57, 114.89 -47.02" stroke="#afd4fe" stroke-width="1" fill="none"></path></g></g><mask></mask><g stroke-linecap="round"><g transform="translate(233.49848353584912 165.09803776006217) rotate(0 52.648912252680475 19.250339535615936)"><path d="M0 0 C31.83 11.64, 63.66 23.28, 105.3 38.5 M0 0 C37.56 13.73, 75.13 27.47, 105.3 38.5" stroke="#afd4fe" stroke-width="1" fill="none"></path></g></g><mask></mask></svg>